<svg id="SvgjsSvg1079" width="288" height="288" xmlns="http://www.w3.org/2000/svg" version="1.1" xmlns:xlink="http://www.w3.org/1999/xlink" xmlns:svgjs="http://svgjs.com/svgjs"><defs id="SvgjsDefs1080"></defs><g id="SvgjsG1081"><svg xmlns="http://www.w3.org/2000/svg" data-name="Layer 2" viewBox="0 0 100 100" width="288" height="288"><path d="M37.62 17.2a2.86 2.86 0 1 0-2.86-2.86A2.86 2.86 0 0 0 37.62 17.2zm0-3.72a.86.86 0 0 1 0 1.72.86.86 0 0 1 0-1.72zM37.62 27.13a2.86 2.86 0 1 0-2.86-2.86A2.86 2.86 0 0 0 37.62 27.13zm0-3.72a.86.86 0 0 1 0 1.72.86.86 0 0 1 0-1.72zM37.62 31.33a2.87 2.87 0 1 0 2.86 2.87A2.87 2.87 0 0 0 37.62 31.33zm0 3.73a.87.87 0 1 1 .86-.86A.87.87 0 0 1 37.62 35.06zM11.59 62.27a2.91 2.91 0 1 0 2.91 2.91A2.91 2.91 0 0 0 11.59 62.27zm0 3.82a.91.91 0 1 1 .91-.91A.91.91 0 0 1 11.59 66.09zM11.59 72.45a2.91 2.91 0 1 0 2.91 2.91A2.91 2.91 0 0 0 11.59 72.45zm0 3.82a.91.91 0 1 1 .91-.91A.91.91 0 0 1 11.59 76.27zM11.59 82.63a2.91 2.91 0 1 0 2.91 2.91A2.91 2.91 0 0 0 11.59 82.63zm0 3.81a.91.91 0 1 1 .91-.9A.9.9 0 0 1 11.59 86.44z" fill="#6c63ff" class="color000 svgShape"></path><path d="M91.7,59.09H76l.07-12a1,1,0,0,0-1-1h-14V44.59a1,1,0,0,0-1-1H51V40.16H65.6a3.08,3.08,0,0,0,3.08-3.08V31.31a3.1,3.1,0,0,0-.82-2.08,3.1,3.1,0,0,0,.82-2.08V21.39a3.1,3.1,0,0,0-.82-2.09,3.08,3.08,0,0,0,.82-2.08V11.46A3.08,3.08,0,0,0,65.6,8.38H34.46a3.08,3.08,0,0,0-3.08,3.08v5.76a3,3,0,0,0,.83,2.08,3.06,3.06,0,0,0-.83,2.09v5.76a3.06,3.06,0,0,0,.83,2.08,3.06,3.06,0,0,0-.83,2.08v5.77a3.08,3.08,0,0,0,3.08,3.08H49v3.43H40a1,1,0,0,0-1,1V46.1H25a1,1,0,0,0-1,1l.07,12H8.3a3.08,3.08,0,0,0-3.08,3.08v6A3.1,3.1,0,0,0,6,70.27a3.1,3.1,0,0,0-.82,2.08v6A3.1,3.1,0,0,0,6,80.45a3.08,3.08,0,0,0-.82,2.08v6A3.09,3.09,0,0,0,8.3,91.63h32a3.09,3.09,0,0,0,3.08-3.09v-6a3.08,3.08,0,0,0-.82-2.08,3.1,3.1,0,0,0,.82-2.09v-6a3.1,3.1,0,0,0-.82-2.08,3.1,3.1,0,0,0,.82-2.09v-6a3.08,3.08,0,0,0-3.08-3.08H26L26,48.1H39v1.51a1,1,0,0,0,1,1H60.06a1,1,0,0,0,1-1V48.1h13l-.07,11H59.67a3.08,3.08,0,0,0-3.08,3.08v6a3.1,3.1,0,0,0,.82,2.09,3.1,3.1,0,0,0-.82,2.08v6a3.1,3.1,0,0,0,.82,2.09,3.08,3.08,0,0,0-.82,2.08v6a3.09,3.09,0,0,0,3.08,3.09h32a3.09,3.09,0,0,0,3.08-3.09v-6A3.08,3.08,0,0,0,94,80.45a3.1,3.1,0,0,0,.82-2.09v-6A3.1,3.1,0,0,0,94,70.27a3.1,3.1,0,0,0,.82-2.09v-6A3.08,3.08,0,0,0,91.7,59.09ZM41.41,85.68a.76.76,0,0,1-.76.76H31.17a.77.77,0,0,1-.77-.76v-.29a.77.77,0,0,1,.77-.76h9.48a.76.76,0,0,1,.76.76Zm0-2.93a2.74,2.74,0,0,0-.76-.12H31.17a2.77,2.77,0,0,0-2.77,2.76v.29a2.76,2.76,0,0,0,2.77,2.76h9.48a2.74,2.74,0,0,0,.76-.12v.22a1.08,1.08,0,0,1-1.08,1.09H8.3a1.09,1.09,0,0,1-1.08-1.09v-6A1.08,1.08,0,0,1,8.3,81.45h32a1.08,1.08,0,0,1,1.08,1.08Zm0-7.25a.77.77,0,0,1-.76.77H31.17a.78.78,0,0,1-.77-.77v-.29a.77.77,0,0,1,.77-.76h9.48a.76.76,0,0,1,.76.76Zm0-2.93a2.74,2.74,0,0,0-.76-.12H31.17a2.77,2.77,0,0,0-2.77,2.76v.29a2.77,2.77,0,0,0,2.77,2.77h9.48a2.74,2.74,0,0,0,.76-.12v.21a1.08,1.08,0,0,1-1.08,1.09H8.3a1.09,1.09,0,0,1-1.08-1.09v-6A1.08,1.08,0,0,1,8.3,71.27h32a1.08,1.08,0,0,1,1.08,1.08Zm0-7.25a.77.77,0,0,1-.76.77H31.17a.78.78,0,0,1-.77-.77V65a.77.77,0,0,1,.77-.76h9.48a.76.76,0,0,1,.76.76Zm-1.08-4.23a1.08,1.08,0,0,1,1.08,1.08v.22a2.74,2.74,0,0,0-.76-.12H31.17A2.77,2.77,0,0,0,28.4,65v.29a2.77,2.77,0,0,0,2.77,2.77h9.48a2.74,2.74,0,0,0,.76-.12v.21a1.08,1.08,0,0,1-1.08,1.09H8.3a1.09,1.09,0,0,1-1.08-1.09v-6A1.08,1.08,0,0,1,8.3,61.09h32Zm26.35-26.8a.77.77,0,0,1-.76.77H56.76a.78.78,0,0,1-.77-.77V34.1a.78.78,0,0,1,.77-.77h9.16a.77.77,0,0,1,.76.77Zm0-9.92a.76.76,0,0,1-.76.76H56.76a.77.77,0,0,1-.77-.76v-.2a.77.77,0,0,1,.77-.76h9.16a.76.76,0,0,1,.76.76Zm0-9.93a.76.76,0,0,1-.76.76H56.76a.77.77,0,0,1-.77-.76v-.2a.77.77,0,0,1,.77-.76h9.16a.76.76,0,0,1,.76.76Zm-33.3-3a1.08,1.08,0,0,1,1.08-1.08H65.6a1.08,1.08,0,0,1,1.08,1.08v.14a2.74,2.74,0,0,0-.76-.12H56.76A2.77,2.77,0,0,0,54,14.24v.2a2.77,2.77,0,0,0,2.77,2.76h9.16a2.74,2.74,0,0,0,.76-.12v.14A1.08,1.08,0,0,1,65.6,18.3H34.46a1.08,1.08,0,0,1-1.08-1.08Zm0,9.93a1.09,1.09,0,0,1,1.08-1.09H65.6a1.09,1.09,0,0,1,1.08,1.09v.14a2.74,2.74,0,0,0-.76-.12H56.76A2.77,2.77,0,0,0,54,24.17v.2a2.77,2.77,0,0,0,2.77,2.76h9.16a2.74,2.74,0,0,0,.76-.12v.14a1.08,1.08,0,0,1-1.08,1.08H34.46a1.08,1.08,0,0,1-1.08-1.08Zm1.08,16.77a1.09,1.09,0,0,1-1.08-1.08V31.31a1.09,1.09,0,0,1,1.08-1.08H65.6a1.09,1.09,0,0,1,1.08,1.08v.14a2.74,2.74,0,0,0-.76-.12H56.76A2.77,2.77,0,0,0,54,34.1v.19a2.77,2.77,0,0,0,2.77,2.77h9.16a2.74,2.74,0,0,0,.76-.12v.14a1.09,1.09,0,0,1-1.08,1.08H34.46Zm24.6,8.94v1.51H41v-3H59.06ZM92.78,85.68a.76.76,0,0,1-.76.76H82.54a.77.77,0,0,1-.77-.76v-.29a.77.77,0,0,1,.77-.76H92a.76.76,0,0,1,.76.76Zm0-2.93a2.74,2.74,0,0,0-.76-.12H82.54a2.77,2.77,0,0,0-2.77,2.76v.29a2.76,2.76,0,0,0,2.77,2.76H92a2.74,2.74,0,0,0,.76-.12v.22a1.09,1.09,0,0,1-1.08,1.09h-32a1.08,1.08,0,0,1-1.08-1.09v-6a1.08,1.08,0,0,1,1.08-1.08h32a1.08,1.08,0,0,1,1.08,1.08Zm0-7.25a.77.77,0,0,1-.76.77H82.54a.78.78,0,0,1-.77-.77v-.29a.77.77,0,0,1,.77-.76H92a.76.76,0,0,1,.76.76Zm0-2.93a2.74,2.74,0,0,0-.76-.12H82.54a2.77,2.77,0,0,0-2.77,2.76v.29a2.77,2.77,0,0,0,2.77,2.77H92a2.43,2.43,0,0,0,.76-.13v.22a1.09,1.09,0,0,1-1.08,1.09h-32a1.08,1.08,0,0,1-1.08-1.09v-6a1.08,1.08,0,0,1,1.08-1.08h32a1.08,1.08,0,0,1,1.08,1.08Zm0-7.25a.77.77,0,0,1-.76.77H82.54a.78.78,0,0,1-.77-.77V65a.77.77,0,0,1,.77-.76H92a.76.76,0,0,1,.76.76Zm0-2.93a2.74,2.74,0,0,0-.76-.12H82.54A2.77,2.77,0,0,0,79.77,65v.29a2.77,2.77,0,0,0,2.77,2.77H92a2.74,2.74,0,0,0,.76-.12v.21a1.09,1.09,0,0,1-1.08,1.09h-32a1.08,1.08,0,0,1-1.08-1.09v-6a1.08,1.08,0,0,1,1.08-1.08h32a1.08,1.08,0,0,1,1.08,1.08Z" fill="#6c63ff" class="color000 svgShape"></path><path d="M63 62.27a2.91 2.91 0 1 0 2.91 2.91A2.91 2.91 0 0 0 63 62.27zm0 3.82a.91.91 0 1 1 .91-.91A.91.91 0 0 1 63 66.09zM63 72.45a2.91 2.91 0 1 0 2.91 2.91A2.91 2.91 0 0 0 63 72.45zm0 3.82a.91.91 0 1 1 .91-.91A.91.91 0 0 1 63 76.27zM63 82.63a2.91 2.91 0 1 0 2.91 2.91A2.91 2.91 0 0 0 63 82.63zm0 3.81a.91.91 0 1 1 .91-.9A.9.9 0 0 1 63 86.44z" fill="#6c63ff" class="color000 svgShape"></path></svg></g></svg>