<svg xmlns="http://www.w3.org/2000/svg" width="64" height="64" viewBox="0 0 16.933 16.933"><path style="line-height:normal;font-variant-ligatures:normal;font-variant-position:normal;font-variant-caps:normal;font-variant-numeric:normal;font-variant-alternates:normal;font-feature-settings:normal;text-indent:0;text-align:start;text-decoration-line:none;text-decoration-style:solid;text-decoration-color:#000;text-transform:none;text-orientation:mixed;white-space:normal;shape-padding:0;isolation:auto;mix-blend-mode:normal;solid-color:#000;solid-opacity:1" d="M8.998 4.998a3.987 3.987 0 0 1 4.002 4v31.535c-1.07-.983-2.443-1.535-4.002-1.535-1.56 0-2.93.552-4 1.535V8.998c0-2.22 1.78-4 4-4zm28 1.506a3.98 3.98 0 0 0-4.002 3.992 3.988 3.988 0 0 0 4.002 4.002c2.221 0 4-1.78 4-4.002a3.978 3.978 0 0 0-4-3.992zM37 9.5c.546 0 1 .454 1 1s-.454 1-1 1-1-.454-1-1 .454-1 1-1z" color="#000" font-family="sans-serif" font-weight="400" overflow="visible" transform="scale(.26458)"/><path style="line-height:normal;font-variant-ligatures:normal;font-variant-position:normal;font-variant-caps:normal;font-variant-numeric:normal;font-variant-alternates:normal;font-feature-settings:normal;text-indent:0;text-align:start;text-decoration-line:none;text-decoration-style:solid;text-decoration-color:#000;text-transform:none;text-orientation:mixed;white-space:normal;shape-padding:0;isolation:auto;mix-blend-mode:normal;solid-color:#000;solid-opacity:1" d="M15 10.002V45c0 1.334-2 1.334-2 0a3.988 3.988 0 0 0-4.002-4.002c-2.22 0-4 1.781-4 4.002a3.987 3.987 0 0 0 4 4.002h46.004c1.56 0 2.932.55 4.002 1.533V14.004a3.988 3.988 0 0 0-4.002-4.002H42.975c.013.163.025.327.025.494a5.95 5.95 0 0 1-.906 3.15l2.756 8.96c2.214-1.505 3.316-3.163 3.316-3.163l1.67 1.108s-1.48 2.182-4.385 4.01l4.502 14.644-1.912.59-4.383-14.254a15.658 15.658 0 0 1-6.66 1.463c-2.616 0-4.835-.615-6.656-1.461l-4.387 14.252-1.912-.59 4.508-14.642c-2.904-1.828-4.383-4.012-4.383-4.012l1.662-1.108s1.103 1.66 3.32 3.166l2.758-8.955a5.95 5.95 0 0 1-.912-3.158c0-.167.012-.33.025-.494H15zM19.002 43h6v2h-6v-2zm10.002 0h5.994v2h-5.994v-2zm9.994 0H45v2h-6.002v-2zm10.004 0h6v2h-6v-2z" color="#000" font-family="sans-serif" font-weight="400" overflow="visible" transform="scale(.26458)"/><path style="line-height:normal;font-variant-ligatures:normal;font-variant-position:normal;font-variant-caps:normal;font-variant-numeric:normal;font-variant-alternates:normal;font-feature-settings:normal;text-indent:0;text-align:start;text-decoration-line:none;text-decoration-style:solid;text-decoration-color:#000;text-transform:none;text-orientation:mixed;white-space:normal;shape-padding:0;isolation:auto;mix-blend-mode:normal;solid-color:#000;solid-opacity:1" d="m40.521 15.34 2.55 8.29a13.814 13.814 0 0 1-6.073 1.372c-2.423 0-4.44-.584-6.068-1.37l2.55-8.288a5.953 5.953 0 0 0 3.518 1.154 5.954 5.954 0 0 0 3.523-1.158zm11.477 35.662h3.004a3.987 3.987 0 0 1 4.002 4 3.988 3.988 0 0 1-4.002 4.002h-3.004zM36.002 2.996v1.6c.325-.055.656-.092.996-.092.343 0 .676.038 1.004.094V2.996h-2z" color="#000" font-family="sans-serif" font-weight="400" overflow="visible" transform="scale(.26458)"/></svg>