<svg id="SvgjsSvg1021" width="288" height="288" xmlns="http://www.w3.org/2000/svg" version="1.1" xmlns:xlink="http://www.w3.org/1999/xlink" xmlns:svgjs="http://svgjs.com/svgjs"><defs id="SvgjsDefs1022"></defs><g id="SvgjsG1023"><svg xmlns="http://www.w3.org/2000/svg" viewBox="0 0 32 32" width="288" height="288"><path style="text-indent:0;text-align:start;line-height:normal;text-transform:none;block-progression:tb;marker:none;-inkscape-font-specification:Sans" d="M2.344 2A.5.5 0 0 0 2 2.5v27a.5.5 0 0 0 .5.5h27a.5.5 0 0 0 .5-.5v-27a.5.5 0 0 0-.5-.5h-27a.5.5 0 0 0-.156 0zM3 3h26v3H3V3zm1.5 1a.5.5 0 1 0 0 1 .5.5 0 0 0 0-1zm2 0a.5.5 0 1 0 0 1 .5.5 0 0 0 0-1zm2 0a.5.5 0 1 0 0 1 .5.5 0 0 0 0-1zM3 7h26v22H3V7zm11.5 3a.5.5 0 0 0-.375.5v1.188c-.435.128-.85.316-1.25.53L12 11.376a.5.5 0 0 0-.688 0l-1.937 1.906a.5.5 0 0 0 0 .719l.844.844c-.225.412-.399.83-.531 1.281H8.5a.5.5 0 0 0-.5.5v2.719a.5.5 0 0 0 .5.5h1.188c.129.445.312.872.53 1.281l-.843.844a.5.5 0 0 0 0 .718l1.938 1.907a.5.5 0 0 0 .687 0l.875-.844c.4.215.815.402 1.25.531V25.5a.5.5 0 0 0 .5.5h2.75a.5.5 0 0 0 .5-.5v-1.219c.435-.128.85-.317 1.25-.531l.875.844a.5.5 0 0 0 .688 0l1.937-1.907a.5.5 0 0 0 0-.718l-.844-.813c.231-.42.396-.853.532-1.312H23.5a.5.5 0 0 0 .5-.5v-2.719a.5.5 0 0 0-.5-.5h-1.188a6.48 6.48 0 0 0-.53-1.281l.843-.844a.5.5 0 0 0 0-.719l-1.938-1.906a.5.5 0 0 0-.687 0l-.875.844a6.649 6.649 0 0 0-1.25-.531V10.5a.5.5 0 0 0-.5-.5h-2.75a.5.5 0 0 0-.125 0zm.625 1h1.75v1a.5.5 0 0 0 .375.5c.616.14 1.215.383 1.75.719a.5.5 0 0 0 .625-.063l.719-.75 1.218 1.25-.718.719a.5.5 0 0 0-.063.625c.335.536.58 1.102.719 1.719a.5.5 0 0 0 .469.406H23v1.719h-1.031a.5.5 0 0 0-.469.406 5.509 5.509 0 0 1-.719 1.719.5.5 0 0 0 .063.625l.718.718-1.218 1.25-.719-.75A.5.5 0 0 0 19 22.75a5.68 5.68 0 0 1-1.75.719.5.5 0 0 0-.375.5V25h-1.75v-1.031a.5.5 0 0 0-.375-.5A5.681 5.681 0 0 1 13 22.75a.5.5 0 0 0-.625.063l-.719.75-1.219-1.25.72-.72a.5.5 0 0 0 .062-.593 5.677 5.677 0 0 1-.719-1.75.5.5 0 0 0-.469-.406H9v-1.719h1.031a.5.5 0 0 0 .469-.375 5.68 5.68 0 0 1 .719-1.75.5.5 0 0 0-.063-.625l-.719-.719 1.22-1.25.718.75a.5.5 0 0 0 .625.063 5.674 5.674 0 0 1 1.75-.719.5.5 0 0 0 .375-.5v-1zM16 15.281c-1.487 0-2.688 1.232-2.688 2.719 0 1.487 1.201 2.688 2.688 2.688s2.688-1.201 2.688-2.688-1.201-2.719-2.688-2.719zm0 1c.946 0 1.688.773 1.688 1.719A1.67 1.67 0 0 1 16 19.688 1.67 1.67 0 0 1 14.312 18c0-.946.742-1.719 1.688-1.719z" color="#000" enable-background="accumulate" font-family="Sans" font-weight="400" overflow="visible" fill="#6c63ff" class="color000 svgShape"></path></svg></g></svg>