<svg xmlns="http://www.w3.org/2000/svg" xmlns:svgjs="http://svgjs.com/svgjs" xmlns:xlink="http://www.w3.org/1999/xlink" width="288" height="288"><svg xmlns="http://www.w3.org/2000/svg" width="288" height="288" viewBox="0 0 64 64"><path fill="#6c63ff" d="M59.45 1.51H4.55C2.04 1.51 0 3.55 0 6.06v51.89c0 2.51 2.04 4.55 4.55 4.55h54.9c2.51 0 4.55-2.04 4.55-4.55V6.06c0-2.51-2.04-4.55-4.55-4.55zm1.68 56.43c0 .93-.75 1.68-1.68 1.68H4.55c-.93 0-1.68-.75-1.68-1.68V13.33h58.27v44.61zm0-47.48H2.87v-4.4c0-.93.75-1.68 1.68-1.68h54.9c.93 0 1.68.75 1.68 1.68v4.4z" class="color000 svgShape"/><path fill="#6c63ff" d="M6.66 5.99c-.8 0-1.44.64-1.44 1.43 0 .79.65 1.43 1.44 1.43a1.43 1.43 0 1 0 0-2.86zm5.06 0c-.8 0-1.44.64-1.44 1.43 0 .79.65 1.43 1.44 1.43a1.43 1.43 0 1 0 0-2.86zm5.06 0c-.8 0-1.44.64-1.44 1.43 0 .79.65 1.43 1.44 1.43.79 0 1.43-.64 1.43-1.43.01-.79-.63-1.43-1.43-1.43zM28.04 41.2H38.7c.79 0 1.43-.64 1.43-1.43V29.1c0-.79-.64-1.43-1.43-1.43H28.04c-.79 0-1.43.64-1.43 1.43v10.66c0 .79.64 1.44 1.43 1.44zm1.43-10.66h7.79v7.79h-7.79v-7.79zM44.49 41.2h10.66c.79 0 1.43-.64 1.43-1.43V29.1c0-.79-.64-1.43-1.43-1.43H44.49c-.79 0-1.43.64-1.43 1.43v10.66c0 .79.64 1.44 1.43 1.44zm1.44-10.66h7.79v7.79h-7.79v-7.79zm-6.96 12.41h-11.2a1.43 1.43 0 1 0 0 2.86h11.19c.79 0 1.43-.64 1.43-1.43s-.63-1.43-1.42-1.43zm0 5.26h-11.2a1.43 1.43 0 1 0 0 2.86h11.19c.79 0 1.43-.64 1.43-1.43s-.63-1.43-1.42-1.43zm0 5.26h-11.2a1.43 1.43 0 1 0 0 2.86h11.19c.79 0 1.43-.64 1.43-1.43s-.63-1.43-1.42-1.43zm16.45-10.52h-11.2a1.43 1.43 0 1 0 0 2.86h11.19c.79 0 1.43-.64 1.43-1.43s-.63-1.43-1.42-1.43zm0 5.26h-11.2a1.43 1.43 0 1 0 0 2.86h11.19c.79 0 1.43-.64 1.43-1.43s-.63-1.43-1.42-1.43zm0 5.26h-11.2a1.43 1.43 0 1 0 0 2.86h11.19c.79 0 1.43-.64 1.43-1.43s-.63-1.43-1.42-1.43zM14.9 42.86c-3.97 0-7.2 3.23-7.2 7.2s3.23 7.2 7.2 7.2 7.2-3.23 7.2-7.2-3.23-7.2-7.2-7.2zm0 11.53c-2.39 0-4.33-1.94-4.33-4.33s1.94-4.33 4.33-4.33a4.34 4.34 0 0 1 4.34 4.33 4.347 4.347 0 0 1-4.34 4.33zm-8.72-15.9c.01.05.02.09.03.13.01.04.02.09.04.13.02.04.04.09.06.13.02.04.04.08.07.12.03.04.06.08.09.11s.05.07.09.1c.04.04.08.08.13.11.02.02.04.04.07.06 0 0 .01 0 .01.01a1.658 1.658 0 0 0 .43.21c.12.03.25.06.38.06H22.5a1.209 1.209 0 0 0 .46-.09c.13-.04.25-.1.35-.18 0 0 .01 0 .01-.01.03-.02.05-.04.07-.06.04-.04.09-.07.13-.11a.7.7 0 0 0 .08-.1c.03-.04.06-.07.09-.12.02-.04.04-.08.07-.12.02-.04.04-.08.06-.13.02-.04.03-.09.04-.13.01-.04.03-.09.04-.13.01-.05.01-.11.02-.16 0-.03.01-.07.01-.1V17.5c0-.03-.01-.07-.01-.1a.875.875 0 0 0-.06-.29c-.01-.04-.02-.09-.04-.13-.02-.04-.04-.08-.06-.13a.746.746 0 0 0-.07-.12c-.03-.04-.06-.08-.09-.11s-.05-.07-.09-.1a.689.689 0 0 0-.13-.11.435.435 0 0 0-.07-.06c-.01 0-.01-.01-.02-.01l-.15-.09c-.03-.02-.06-.04-.1-.05-.04-.02-.09-.03-.14-.05-.04-.01-.09-.03-.13-.04-.04-.01-.08-.01-.12-.02a.875.875 0 0 0-.16-.02H7.56c-.05 0-.11.01-.16.02-.04.01-.08.01-.12.02-.04.01-.08.03-.12.04-.05.02-.1.03-.14.05-.03.01-.06.03-.09.05-.05.03-.11.06-.16.09-.01 0-.01.01-.02.01-.03.02-.05.04-.07.06-.04.04-.09.07-.13.11-.03.03-.06.07-.09.1-.03.04-.06.07-.09.11-.02.04-.04.08-.07.12-.02.04-.04.08-.06.13-.02.04-.03.09-.04.13-.01.04-.03.09-.03.13-.01.05-.01.11-.02.16 0 .03-.01.06-.01.1v20.73c0 .03.01.07.01.1l.03.16zm4.2-1.69 4.66-6.48 4.66 6.48h-9.32zm10.69-3.01-4.26-5.92 4.26-5.92v11.84zm-1.36-14.86-4.66 6.48-4.66-6.48h9.32zM9.02 21.94l4.26 5.92-4.26 5.92V21.94zm19.02-3.38h27.38a1.43 1.43 0 1 0 0-2.86H28.04a1.43 1.43 0 1 0 0 2.86zm-.53 5.7h11.92a1.43 1.43 0 1 0 0-2.86H27.51c-.79 0-1.43.64-1.43 1.43s.63 1.43 1.43 1.43zm16.98-2.87a1.43 1.43 0 1 0 0 2.86h11.93a1.43 1.43 0 1 0 0-2.86H44.49zm10.66-15.4H45.11a1.43 1.43 0 1 0 0 2.86h10.05c.79 0 1.43-.64 1.43-1.43-.01-.79-.65-1.43-1.44-1.43z" class="color000 svgShape"/></svg></svg>