<svg id="SvgjsSvg1347" width="288" height="288" xmlns="http://www.w3.org/2000/svg" version="1.1" xmlns:xlink="http://www.w3.org/1999/xlink" xmlns:svgjs="http://svgjs.com/svgjs"><defs id="SvgjsDefs1348"></defs><g id="SvgjsG1349"><svg xmlns="http://www.w3.org/2000/svg" viewBox="0 0 64 64" width="288" height="288"><path fill="#6c63ff" d="M64 39.89c0-.01 0-.01 0 0 0-3.43-.95-6.64-2.61-9.37-.01-.02-.02-.05-.04-.07l-.11-.17c-.75-1.2-1.64-2.31-2.63-3.3.02-.09.03-.17.03-.26V10.29c0-2.42-1.96-4.39-4.37-4.39H4.38A4.394 4.394 0 0 0 0 10.29v34.99c0 2.4 1.96 4.37 4.38 4.37h26.07c0 .01.01.03.02.04.06.1.11.18.18.28.01.01.01.02.02.03 3.16 4.73 8.5 7.9 14.57 8.08.19.01.37.02.56.02.18 0 .36-.01.56-.02 6.07-.17 11.4-3.34 14.56-8.08.02-.03.05-.06.07-.09a.77.77 0 0 0 .09-.13c.02-.03.04-.06.05-.09a18.07 18.07 0 0 0 2.87-9.8zm-1.95-.96h-5.73c-.08-2.55-.44-4.94-1.04-7.09h4.67c1.2 2.11 1.95 4.52 2.1 7.09zm-4.74-10.55c.49.49.94 1 1.35 1.54h-4c-.77-2.09-1.78-3.87-2.98-5.23a16.364 16.364 0 0 1 4.56 2.7c.37.32.74.65 1.07.99zm-4.05 3.46c.65 2.13 1.06 4.54 1.14 7.09h-7.65v-7.09h6.51zm-6.51-1.91V23.7c2.33.51 4.41 2.86 5.82 6.23h-5.82zm7.65 10.91s0 .01 0 0c-.09 2.73-.55 5.29-1.28 7.52h-6.36v-7.52h7.64zM40.17 9.88h12.04c.95 0 1.72.78 1.72 1.72s-.78 1.72-1.72 1.72H40.17c-.95 0-1.72-.78-1.72-1.72s.77-1.72 1.72-1.72zm-21.93-.19c1.06 0 1.93.86 1.93 1.92a1.92 1.92 0 1 1-1.93-1.92zm-5.9.01c1.06 0 1.92.85 1.92 1.91s-.85 1.91-1.91 1.91-1.93-.85-1.93-1.91.87-1.91 1.92-1.91zm-5.9 0c1.06 0 1.93.85 1.93 1.91s-.86 1.91-1.92 1.91-1.92-.85-1.92-1.91.85-1.91 1.91-1.91zm25.77 38.66h-.32c-.41-.68-.79-1.39-1.09-2.13-.71-1.67-1.15-3.48-1.26-5.38h5.73c.09 2.72.49 5.26 1.17 7.51h-4.23zm4.1-16.52c-.6 2.14-.97 4.54-1.04 7.09h-5.73c.15-2.57.9-4.98 2.11-7.09h4.66zm-3.39-1.91c1.8-2.33 4.21-4.16 6.99-5.23-1.2 1.36-2.21 3.14-2.98 5.23h-4.01zm.34 20.35h3.84c.75 1.91 1.71 3.54 2.82 4.8-2.62-1.01-4.89-2.68-6.66-4.8zm11.58 5.79c-2.22-.49-4.22-2.65-5.62-5.8h5.62v5.8zm0-7.71h-6.36c-.74-2.22-1.2-4.79-1.28-7.51h7.64v7.51zm0-9.43H37.2c.08-2.55.49-4.96 1.14-7.09h6.5v7.09zm0-9h-5.81c1.41-3.37 3.49-5.72 5.81-6.23v6.23zm1.37-8.24c-.13-.01-.28-.01-.41-.01-.13 0-.28 0-.41.01-6.34.13-11.89 3.54-15.04 8.58l-.11.17c-.02.02-.03.05-.04.07a18.02 18.02 0 0 0-2.6 9.35c0 .01-.01.02-.01.03 0 .01.01.02.01.03 0 2.2.39 4.32 1.13 6.29H4.38c-.51 0-.93-.41-.93-.92V17.3H55.2v7c-2.64-1.6-5.71-2.55-8.99-2.61zm.54 34.38v-5.8h5.63c-1.4 3.15-3.4 5.31-5.63 5.8zm4.93-.99c1.11-1.26 2.07-2.89 2.82-4.8h3.83a16.372 16.372 0 0 1-6.65 4.8zm10.38-14.23c-.16 2.75-1.01 5.31-2.37 7.51h-4.53c.68-2.25 1.08-4.79 1.17-7.51h5.73c0-.01 0 0 0 0z" class="color2b4a54 svgShape"></path><path fill="#6c63ff" d="M37.95 19.7H6.9a.96.96 0 0 0 0 1.92h31.05a.96.96 0 0 0 0-1.92zm-17.14 6.9H6.9a.96.96 0 0 0 0 1.92h13.91a.96.96 0 0 0 0-1.92zm-4.75 6.47h-9.1a.96.96 0 0 0 0 1.92h9.1a.96.96 0 0 0 0-1.92zm-1.61 6.9H7.22a.96.96 0 0 0 0 1.92h7.22c.53 0 .96-.43.96-.96a.952.952 0 0 0-.95-.96z" class="color2b4a54 svgShape"></path></svg></g></svg>