<svg id="SvgjsSvg1111" width="288" height="288" xmlns="http://www.w3.org/2000/svg" version="1.1" xmlns:xlink="http://www.w3.org/1999/xlink" xmlns:svgjs="http://svgjs.com/svgjs"><defs id="SvgjsDefs1112"></defs><g id="SvgjsG1113"><svg xmlns="http://www.w3.org/2000/svg" enable-background="new 0 0 67 67" viewBox="0 0 67 67" width="288" height="288"><rect width="25.261" height="3.97" x="20.87" y="61.533" fill="#ffffff" class="colorBDD7F0 svgShape"></rect><path fill="#ffffff" d="M65.39199,17.30683v35.78744c0,1.65685-1.34314,3-3,3H4.60817c-1.65685,0-3-1.34315-3-3V17.30683
		c0-1.65685,1.34315-3,3-3h57.78382C64.04885,14.30683,65.39199,15.64997,65.39199,17.30683z" class="colorBDD7F0 svgShape"></path><rect width="55.784" height="33.788" x="5.608" y="18.307" fill="#ffffff" class="colorFFF svgShape"></rect><rect width="31.12" height="44.186" x="12.789" y="1.504" fill="#ffffff" class="colorFFF svgShape"></rect><rect width="23.12" height="12.75" x="18.179" y="22.694" fill="#ffffff" class="color48A0D9 svgShape"></rect><rect width="23.12" height="12.41" x="17.989" y="6.604" fill="#ffffff" class="colorBDD7F0 svgShape"></rect><line x1="10.158" x2="56.227" y1="45.688" y2="45.688" fill="#BDD7F0"></line><polyline fill="#ffffff" points="53.828 12.945 50.808 4.807 47.51 12.886" class="colorFFF svgShape"></polyline><rect width="6.347" height="26.898" x="47.479" y="12.944" fill="#ffffff" class="colorF6968A svgShape"></rect><rect width="6.339" height="5.84" x="47.483" y="39.848" fill="#ffffff" class="color3EBDA7 svgShape"></rect><rect width="23.12" height="1" x="16.789" y="41.19" fill="#ffffff" class="colorBDD7F0 svgShape"></rect><rect width="23.12" height="1" x="16.789" y="37.324" fill="#ffffff" class="colorBDD7F0 svgShape"></rect><path fill="#6c63ff" d="M62.39001,13.81012h-8.06006c-0.00826-0.82127,0.02156-0.91122-0.02997-1.04004
			c0-0.01001-0.01001-0.02002-0.01001-0.02002c-1.19176-3.21103-3.61502-9.74015-3.45929-9.32056l-3.76666,9.22656
			c-0.0014,0.00073,0,0.00403-0.00403,0.00403c-0.00348,0.00549-0.00226,0.01379-0.00555,0.01953l-0.00697,0.01697l0.00185,0.00073
			c-0.03857,0.07373-0.06934,0.15613-0.06934,0.24268v0.87012h-2.57001V1.00006h-32.12v12.81006H4.60999
			c-1.92999,0-3.5,1.56995-3.5,3.5v35.78003c0,1.92993,1.57001,3.5,3.5,3.5h20.73999v4.43994H20.37v4.96997H46.63v-4.96997h-4.98004
			v-4.43994h20.74005c1.92999,0,3.5-1.57007,3.5-3.5V17.31012C65.89001,15.38007,64.32001,13.81012,62.39001,13.81012z
			 M45.63,62.03009v2.96997H21.37v-2.96997C28.52986,62.03009,38.46147,62.03009,45.63,62.03009z M26.34998,61.03009v-4.42993
			h14.29999v4.42993H26.34998z M53.10797,12.44H48.2323l2.55347-6.25561L53.10797,12.44z M47.97998,13.44h5.34998
			c0,9.89688,0,10.37741,0,25.90015h-2.15997V29.07013h-1v10.27002h-2.19C47.97998,25.59628,47.97998,21.02042,47.97998,13.44z
			 M12.28998,45.19001h-2.13v1c14.06868,0,31.97521,0,46.07001,0v-1h-1.90997v-5.25
			c0.03347-0.10061,0.00995-0.02289,0.00995-21.12988h6.56006v32.78003H6.10999V18.81012h6.17999V45.19001z M47.97998,40.35016
			h5.34003v4.83984h-5.34003V40.35016z M46.97998,45.19001h-2.57001V18.81012h2.57001
			C46.97998,22.64618,46.97998,33.72577,46.97998,45.19001z M46.97998,14.81012v3h-2.57001v-3H46.97998z M13.28998,2.00006h30.12
			c0,22.52406,0,4.5858,0,43.18994h-30.12C13.28998,36.09543,13.28998,11.47862,13.28998,2.00006z M64.89001,53.09015
			c0,1.37988-1.12006,2.5-2.5,2.5H4.60999c-1.38,0-2.5-1.12012-2.5-2.5V17.31012c0-1.38013,1.12-2.5,2.5-2.5h7.67999v3H5.10999
			v34.78003h56.78003V17.81012h-7.56006v-3h8.06006c1.37994,0,2.5,1.11987,2.5,2.5V53.09015z" class="color223059 svgShape"></path><path fill="#6c63ff" d="M40.40997 20.70001h-24.12v13.76001h24.12V20.70001zM27.31354 27.58063l-10.02356 5.52918V22.05145L27.31354 27.58063zM18.72327 21.70001h19.25098l-9.62549 5.30957L18.72327 21.70001zM28.34875 28.15167l9.62329 5.30835H18.72546L28.34875 28.15167zM29.38397 27.58063l10.026-5.53052v11.06104L29.38397 27.58063zM40.40997 13.81012V5.00006h-24.12c0 7.42891 0 5.68781 0 13.41003h24.12C40.40997 18.19539 40.40997 13.70744 40.40997 13.81012zM39.40997 17.07013c-.10484-.0562-10.10155-5.41457-10-5.36011l10-5.36987C39.40997 7.08735 39.40997 17.57761 39.40997 17.07013zM18.77997 17.4101c.10291-.05521 7.17751-3.855 9.57001-5.14001 11.34241 6.10381.17322.09314 9.57001 5.14001H18.77997zM37.91998 6.00006l-9.57001 5.14001-9.57001-5.14001H37.91998zM17.28998 6.34015l10 5.36987c-1.0225.54807 3.70405-1.98541-10 5.36011C17.28998 14.1581 17.28998 8.00754 17.28998 6.34015z" class="color223059 svgShape"></path></svg></g></svg>